{
  "accessors": [
    {
      "bufferView": 2,
      "componentType": 5126,
      "count": 18984,
      "max": [
        5.259068489074707,
        9.021577835083008,
        4.884836196899414
      ],
      "min": [
        -4.677216529846191,
        -0.0752253532409668,
        -4.800350189208984
      ],
      "type": "VEC3"
    },
    {
      "bufferView": 2,
      "byteOffset": 227808,
      "componentType": 5126,
      "count": 18984,
      "max": [
        0.9999130368232727,
        0.9999959468841553,
        0.9999118447303772
      ],
      "min": [
        -0.9998773336410522,
        -0.9999293088912964,
        -0.9999383091926575
      ],
      "type": "VEC3"
    },
    {
      "bufferView": 3,
      "componentType": 5126,
      "count": 18984,
      "max": [
        0.9999959468841553,
        0.9974686503410339,
        0.9999746680259705,
        1.0
      ],
      "min": [
        -0.9997456073760986,
        -0.9954801797866821,
        -0.999977707862854,
        -1.0
      ],
      "type": "VEC4"
    },
    {
      "bufferView": 1,
      "componentType": 5126,
      "count": 18984,
      "max": [
        0.998151421546936,
        0.9997478723526001
      ],
      "min": [
        0.00025214318884536624,
        0.001627206802368164
      ],
      "type": "VEC2"
    },
    {
      "bufferView": 0,
      "componentType": 5125,
      "count": 95562,
      "type": "SCALAR"
    },
    {
      "bufferView": 2,
      "byteOffset": 455616,
      "componentType": 5126,
      "count": 14543,
      "max": [
        4.809751510620117,
        4.5016913414001465,
        4.36470365524292
      ],
      "min": [
        -4.23300313949585,
        -0.08271360397338867,
        -4.313891410827637
      ],
      "type": "VEC3"
    },
    {
      "bufferView": 2,
      "byteOffset": 630132,
      "componentType": 5126,
      "count": 14543,
      "max": [
        0.9997060298919678,
        0.9999986290931702,
        0.9997922778129578
      ],
      "min": [
        -0.9988810420036316,
        -0.9996528029441833,
        -0.9997655749320984
      ],
      "type": "VEC3"
    },
    {
      "bufferView": 3,
      "byteOffset": 303744,
      "componentType": 5126,
      "count": 14543,
      "max": [
        0.9998766779899597,
        0.9998979568481445,
        0.9968190789222717,
        1.0
      ],
      "min": [
        -0.995379626750946,
        -0.9999901652336121,
        -0.9999926686286926,
        -1.0
      ],
      "type": "VEC4"
    },
    {
      "bufferView": 1,
      "byteOffset": 151872,
      "componentType": 5126,
      "count": 14543,
      "max": [
        0.9968187808990479,
        0.9997429251670837
      ],
      "min": [
        0.0002570694196037948,
        0.0017322301864624023
      ],
      "type": "VEC2"
    },
    {
      "bufferView": 0,
      "byteOffset": 382248,
      "componentType": 5125,
      "count": 76110,
      "type": "SCALAR"
    }
  ],
  "asset": {
    "extras": {
      "author": "Kami Rapacz (https://sketchfab.com/kuroderuta)",
      "license": "CC-BY-4.0 (http://creativecommons.org/licenses/by/4.0/)",
      "source": "https://sketchfab.com/3d-models/orange-cut-half-orange-fruit-f8ad567bfc994c8984704877bf1ecbbf",
      "title": "Orange & Cut Half Orange Fruit"
    },
    "generator": "Sketchfab-15.19.0",
    "version": "2.0"
  },
  "bufferViews": [
    {
      "buffer": 0,
      "byteLength": 686688,
      "name": "floatBufferViews",
      "target": 34963
    },
    {
      "buffer": 0,
      "byteLength": 268216,
      "byteOffset": 686688,
      "byteStride": 8,
      "name": "floatBufferViews",
      "target": 34962
    },
    {
      "buffer": 0,
      "byteLength": 804648,
      "byteOffset": 954904,
      "byteStride": 12,
      "name": "floatBufferViews",
      "target": 34962
    },
    {
      "buffer": 0,
      "byteLength": 536432,
      "byteOffset": 1759552,
      "byteStride": 16,
      "name": "floatBufferViews",
      "target": 34962
    }
  ],
  "buffers": [
    {
      "byteLength": 2295984,
      "uri": "scene.bin"
    }
  ],
  "images": [
    {
      "uri": "textures/Orange_baseColor.png"
    },
    {
      "uri": "textures/Orange_metallicRoughness.png"
    },
    {
      "uri": "textures/Orange_normal.png"
    },
    {
      "uri": "textures/Orange_Half_baseColor.png"
    },
    {
      "uri": "textures/Orange_Half_metallicRoughness.png"
    },
    {
      "uri": "textures/Orange_Half_normal.png"
    }
  ],
  "materials": [
    {
      "doubleSided": true,
      "name": "Orange",
      "normalTexture": {
        "index": 2
      },
      "occlusionTexture": {
        "index": 1
      },
      "pbrMetallicRoughness": {
        "baseColorTexture": {
          "index": 0
        },
        "metallicFactor": 0.0,
        "metallicRoughnessTexture": {
          "index": 1
        }
      }
    },
    {
      "doubleSided": true,
      "name": "Orange_Half",
      "normalTexture": {
        "index": 5
      },
      "occlusionTexture": {
        "index": 4
      },
      "pbrMetallicRoughness": {
        "baseColorTexture": {
          "index": 3
        },
        "metallicFactor": 0.0,
        "metallicRoughnessTexture": {
          "index": 4
        }
      }
    }
  ],
  "meshes": [
    {
      "name": "Orange_Orange_0",
      "primitives": [
        {
          "attributes": {
            "NORMAL": 1,
            "POSITION": 0,
            "TANGENT": 2,
            "TEXCOORD_0": 3
          },
          "indices": 4,
          "material": 0,
          "mode": 4
        }
      ]
    },
    {
      "name": "Orange_Half_Orange Half_0",
      "primitives": [
        {
          "attributes": {
            "NORMAL": 6,
            "POSITION": 5,
            "TANGENT": 7,
            "TEXCOORD_0": 8
          },
          "indices": 9,
          "material": 1,
          "mode": 4
        }
      ]
    }
  ],
  "nodes": [
    {
      "children": [
        1
      ],
      "matrix": [
        2.220446049250313e-16,
        -2.220446049250313e-16,
        1.0,
        0.0,
        1.0,
        4.930380657631324e-32,
        -2.220446049250313e-16,
        0.0,
        0.0,
        1.0,
        2.220446049250313e-16,
        0.0,
        0.0,
        0.0,
        0.0,
        1.0
      ],
      "name": "Sketchfab_model"
    },
    {
      "children": [
        2
      ],
      "matrix": [
        0.009999999776482582,
        0.0,
        0.0,
        0.0,
        0.0,
        0.0,
        0.009999999776482582,
        0.0,
        0.0,
        -0.009999999776482582,
        0.0,
        0.0,
        0.0,
        0.0,
        0.0,
        1.0
      ],
      "name": "2a130ce023b54ce5b1363e0224f8613d.fbx"
    },
    {
      "children": [
        3,
        5
      ],
      "name": "RootNode"
    },
    {
      "children": [
        4
      ],
      "matrix": [
        0.9300000071525574,
        0.0,
        0.0,
        0.0,
        0.0,
        0.9300000071525574,
        0.0,
        0.0,
        0.0,
        0.0,
        0.9300000071525574,
        0.0,
        0.0,
        0.0,
        6.0,
        1.0
      ],
      "name": "Orange"
    },
    {
      "mesh": 0,
      "name": "Orange_Orange_0"
    },
    {
      "children": [
        6
      ],
      "matrix": [
        1.0,
        0.0,
        0.0,
        0.0,
        0.0,
        1.0,
        0.0,
        0.0,
        0.0,
        0.0,
        1.0,
        0.0,
        0.0,
        0.0,
        -6.0,
        1.0
      ],
      "name": "Orange_Half"
    },
    {
      "mesh": 1,
      "name": "Orange_Half_Orange Half_0"
    }
  ],
  "samplers": [
    {
      "magFilter": 9729,
      "minFilter": 9987,
      "wrapS": 10497,
      "wrapT": 10497
    }
  ],
  "scene": 0,
  "scenes": [
    {
      "name": "Sketchfab_Scene",
      "nodes": [
        0
      ]
    }
  ],
  "textures": [
    {
      "sampler": 0,
      "source": 0
    },
    {
      "sampler": 0,
      "source": 1
    },
    {
      "sampler": 0,
      "source": 2
    },
    {
      "sampler": 0,
      "source": 3
    },
    {
      "sampler": 0,
      "source": 4
    },
    {
      "sampler": 0,
      "source": 5
    }
  ]
}
