{
  "accessors": [
    {
      "bufferView": 2,
      "componentType": 5126,
      "count": 4033,
      "max": [
        16.4737491607666,
        16.192644119262695,
        3.5476818084716797
      ],
      "min": [
        -17.98602294921875,
        -16.166179656982422,
        -9.960466384887695
      ],
      "type": "VEC3"
    },
    {
      "bufferView": 2,
      "byteOffset": 48396,
      "componentType": 5126,
      "count": 4033,
      "max": [
        0.9998002052307129,
        0.999887228012085,
        1.0
      ],
      "min": [
        -0.9994000792503357,
        -0.9999805688858032,
        -1.0
      ],
      "type": "VEC3"
    },
    {
      "bufferView": 3,
      "componentType": 5126,
      "count": 4033,
      "max": [
        0.9997656941413879,
        0.999918520450592,
        1.0,
        1.0
      ],
      "min": [
        -0.9999975562095642,
        -0.9999085068702698,
        -0.9856817126274109,
        -1.0
      ],
      "type": "VEC4"
    },
    {
      "bufferView": 1,
      "componentType": 5126,
      "count": 4033,
      "max": [
        0.9909619092941284,
        0.990985095500946
      ],
      "min": [
        0.010513977147638798,
        0.02153528481721878
      ],
      "type": "VEC2"
    },
    {
      "bufferView": 0,
      "componentType": 5125,
      "count": 15381,
      "type": "SCALAR"
    },
    {
      "bufferView": 2,
      "byteOffset": 96792,
      "componentType": 5126,
      "count": 183,
      "max": [
        11.091407775878906,
        19.89255142211914,
        5.5016188621521
      ],
      "min": [
        -14.633590698242188,
        -21.544755935668945,
        -7.5419206619262695
      ],
      "type": "VEC3"
    },
    {
      "bufferView": 2,
      "byteOffset": 98988,
      "componentType": 5126,
      "count": 183,
      "max": [
        0.737602710723877,
        0.8964987993240356,
        0.9989407062530518
      ],
      "min": [
        -0.6287059187889099,
        -0.9993025064468384,
        -0.9604100584983826
      ],
      "type": "VEC3"
    },
    {
      "bufferView": 3,
      "byteOffset": 64528,
      "componentType": 5126,
      "count": 183,
      "max": [
        0.9986752271652222,
        0.9974949955940247,
        0.9937133193016052,
        1.0
      ],
      "min": [
        -0.8532050251960754,
        -0.9964091777801514,
        -0.9029659032821655,
        1.0
      ],
      "type": "VEC4"
    },
    {
      "bufferView": 1,
      "byteOffset": 32264,
      "componentType": 5126,
      "count": 183,
      "max": [
        0.3762017488479614,
        0.182222381234169
      ],
      "min": [
        0.11058034002780914,
        0.0970141813158989
      ],
      "type": "VEC2"
    },
    {
      "bufferView": 0,
      "byteOffset": 61524,
      "componentType": 5125,
      "count": 417,
      "type": "SCALAR"
    }
  ],
  "asset": {
    "extras": {
      "author": "3dAssetsForGames (https://sketchfab.com/3dAssatsForGames)",
      "license": "CC-BY-4.0 (http://creativecommons.org/licenses/by/4.0/)",
      "source": "https://sketchfab.com/3d-models/birds-nest-01f30c72c062448085640a52e60e0954",
      "title": "Bird's Nest"
    },
    "generator": "Sketchfab-15.54.0",
    "version": "2.0"
  },
  "bufferViews": [
    {
      "buffer": 0,
      "byteLength": 63192,
      "name": "floatBufferViews",
      "target": 34963
    },
    {
      "buffer": 0,
      "byteLength": 33728,
      "byteOffset": 63192,
      "byteStride": 8,
      "name": "floatBufferViews",
      "target": 34962
    },
    {
      "buffer": 0,
      "byteLength": 101184,
      "byteOffset": 96920,
      "byteStride": 12,
      "name": "floatBufferViews",
      "target": 34962
    },
    {
      "buffer": 0,
      "byteLength": 67456,
      "byteOffset": 198104,
      "byteStride": 16,
      "name": "floatBufferViews",
      "target": 34962
    }
  ],
  "buffers": [
    {
      "byteLength": 265560,
      "uri": "scene.bin"
    }
  ],
  "images": [
    {
      "uri": "textures/Gnezdo_V2_baseColor.png"
    },
    {
      "uri": "textures/Gnezdo_V2_metallicRoughness.png"
    },
    {
      "uri": "textures/Gnezdo_V2_normal.png"
    }
  ],
  "materials": [
    {
      "alphaMode": "BLEND",
      "doubleSided": true,
      "name": "Gnezdo_V2",
      "normalTexture": {
        "index": 2
      },
      "occlusionTexture": {
        "index": 1
      },
      "pbrMetallicRoughness": {
        "baseColorTexture": {
          "index": 0
        },
        "metallicRoughnessTexture": {
          "index": 1
        }
      }
    },
    {
      "alphaMode": "BLEND",
      "doubleSided": true,
      "name": "Peria",
      "normalTexture": {
        "index": 2
      },
      "occlusionTexture": {
        "index": 1
      },
      "pbrMetallicRoughness": {
        "baseColorTexture": {
          "index": 0
        },
        "metallicRoughnessTexture": {
          "index": 1
        }
      }
    }
  ],
  "meshes": [
    {
      "name": "Sphere001_Gnezdo_V2_0",
      "primitives": [
        {
          "attributes": {
            "NORMAL": 1,
            "POSITION": 0,
            "TANGENT": 2,
            "TEXCOORD_0": 3
          },
          "indices": 4,
          "material": 0,
          "mode": 4
        }
      ]
    },
    {
      "name": "Sphere001_Peria_0",
      "primitives": [
        {
          "attributes": {
            "NORMAL": 6,
            "POSITION": 5,
            "TANGENT": 7,
            "TEXCOORD_0": 8
          },
          "indices": 9,
          "material": 1,
          "mode": 4
        }
      ]
    }
  ],
  "nodes": [
    {
      "children": [
        1
      ],
      "matrix": [
        1.0,
        0.0,
        0.0,
        0.0,
        0.0,
        2.220446049250313e-16,
        -1.0,
        0.0,
        0.0,
        1.0,
        2.220446049250313e-16,
        0.0,
        0.0,
        0.0,
        0.0,
        1.0
      ],
      "name": "Sketchfab_model"
    },
    {
      "children": [
        2
      ],
      "matrix": [
        0.0010000000474974513,
        0.0,
        0.0,
        0.0,
        0.0,
        0.0,
        0.0010000000474974513,
        0.0,
        0.0,
        -0.0010000000474974513,
        0.0,
        0.0,
        0.0,
        0.0,
        0.0,
        1.0
      ],
      "name": "b26d9f70c5b44ceb83d024b416e2c32c.fbx"
    },
    {
      "children": [
        3
      ],
      "name": "RootNode"
    },
    {
      "children": [
        4
      ],
      "matrix": [
        1.0,
        0.0,
        0.0,
        0.0,
        0.0,
        2.220446049250313e-16,
        -1.0,
        0.0,
        0.0,
        1.0,
        2.220446049250313e-16,
        0.0,
        -4.689627647399902,
        -2.229423761367798,
        15.634113311767578,
        1.0
      ],
      "name": "Sphere001"
    },
    {
      "children": [
        5,
        6
      ],
      "matrix": [
        1.0,
        0.0,
        -0.0,
        0.0,
        0.0,
        1.0,
        0.0,
        0.0,
        0.0,
        0.0,
        1.0,
        0.0,
        -0.27329158782958984,
        8.055842399597168,
        2.229423761367798,
        1.0
      ],
      "name": "Object_4"
    },
    {
      "mesh": 0,
      "name": "Sphere001_Gnezdo_V2_0"
    },
    {
      "mesh": 1,
      "name": "Sphere001_Peria_0"
    }
  ],
  "samplers": [
    {
      "magFilter": 9729,
      "minFilter": 9987,
      "wrapS": 10497,
      "wrapT": 10497
    }
  ],
  "scene": 0,
  "scenes": [
    {
      "name": "Sketchfab_Scene",
      "nodes": [
        0
      ]
    }
  ],
  "textures": [
    {
      "sampler": 0,
      "source": 0
    },
    {
      "sampler": 0,
      "source": 1
    },
    {
      "sampler": 0,
      "source": 2
    }
  ]
}
